<svg id="Layer_1" data-name="Layer 1" xmlns="http://www.w3.org/2000/svg" viewBox="0 0 200 100"><defs><style>.cls-1{fill:#1e1e1c;}.cls-2{fill:#e20d18;}</style></defs><title>pa</title><path class="cls-1" d="M58.86,54.87a1.51,1.51,0,1,0,1.52-1.51,1.51,1.51,0,0,0-1.52,1.51Zm-.21-22.93a1.51,1.51,0,1,0,1.52-1.52,1.51,1.51,0,0,0-1.52,1.52S58.65,31.92,58.65,31.93ZM41.07,21a1.51,1.51,0,1,0,1.5-1.52A1.51,1.51,0,0,0,41.07,21s0,0,0,0Zm0,33.78a1.51,1.51,0,1,0,1.51-1.51h0a1.51,1.51,0,0,0-1.52,1.5h0Zm-3-.31V21.35a4.55,4.55,0,1,1,9.09-.44q0,.22,0,.44V39.18l9.47-9.67a5,5,0,0,1,3.89-1.66,4,4,0,0,1,3.74,4.26v.12A4.44,4.44,0,0,1,62.94,35l-5.61,5.53,6.77,11.7A5.64,5.64,0,0,1,64.91,55a4.25,4.25,0,0,1-4.2,4.31H60.6a4.87,4.87,0,0,1-4.31-2.65L50.87,47l-3.72,3.66v3.88a4.55,4.55,0,0,1-9.09.44q0-.22,0-.44Z"/><path class="cls-2" d="M58.53,54.87A1.82,1.82,0,1,0,60.35,53h0A1.82,1.82,0,0,0,58.53,54.87Z"/><path class="cls-1" d="M38.05,81.83a1.2,1.2,0,1,0,2.39,0v-3l2.4-2.69,3.86,6.32a1.28,1.28,0,0,0,1.06.69,1.06,1.06,0,0,0,1.15-1s0-.06,0-.09a1.29,1.29,0,0,0-.2-.71l-4.27-7,3.19-3.46a1.13,1.13,0,0,0,.34-.8,1,1,0,0,0-1-1h0a1.16,1.16,0,0,0-.91.43l-5.63,6.36V64.71a1.2,1.2,0,1,0-2.4,0h0V81.83Z"/><path class="cls-1" d="M62.88,70.45a1.2,1.2,0,1,0-2.4,0h0v7.3a3,3,0,0,1-2.69,3.33l-.39,0c-2.06,0-3-1.29-3-3.49V70.45a1.2,1.2,0,1,0-2.4,0h0v7.72c0,3.12,1.74,5.15,4.72,5.15a4.25,4.25,0,0,0,3.78-1.86h0v.37a1.2,1.2,0,1,0,2.4,0V70.45Z"/><path class="cls-1" d="M72,83.15c.86,0,1.29-.46,1.29-1.06A1.06,1.06,0,0,0,72.2,81h-.11c-1.46,0-1.83-.43-1.83-1.88V71.43a.15.15,0,0,1,.12-.17h1.84a1,1,0,0,0,.2-1.95h-2a.15.15,0,0,1-.17-.17v-3a1.2,1.2,0,0,0-2.4,0v3a.15.15,0,0,1-.12.17h-.82a1,1,0,1,0-.2,1.95h1a.15.15,0,0,1,.17.17v7.69c0,2.86,1.06,4,3.83,4Z"/><path class="cls-1" d="M85.59,83.15a1.06,1.06,0,0,0,1.06-1.06,1.39,1.39,0,0,0-.29-.83l-3.83-5.4L85.94,71a1.44,1.44,0,0,0,.29-.8,1.06,1.06,0,0,0-1.06-1.06,1.26,1.26,0,0,0-1.06.57L81.16,74h0l-2.91-4.25a1.26,1.26,0,0,0-1.06-.57,1.06,1.06,0,0,0-1.06,1.06,1.44,1.44,0,0,0,.29.8l3.4,4.83L76,81.26a1.38,1.38,0,0,0-.29.83,1.06,1.06,0,0,0,1.06,1.06,1.26,1.26,0,0,0,1.06-.6l3.35-4.74h0l3.35,4.74a1.22,1.22,0,0,0,1.06.6Z"/><path class="cls-1" d="M101.38,81.32l-.49-.88a2.66,2.66,0,0,1-.26-1.4V74.11c0-3.37-1.71-5.12-5.37-5.12a7.67,7.67,0,0,0-4.18,1.06,1.06,1.06,0,0,0-.57,1,1,1,0,0,0,.84,1.06h.23a1.68,1.68,0,0,0,.69-.2,6.52,6.52,0,0,1,2.8-.68c2.4,0,3.29,1.06,3.29,3v.66a.15.15,0,0,1-.12.17H95c-3.4,0-5.32,1.4-5.32,4.25,0,2.61,1.78,4.12,4.83,4.12a5.21,5.21,0,0,0,4.25-1.63h0l.54.86a1.26,1.26,0,0,0,1.06.6,1.15,1.15,0,0,0,1.23-1.06s0-.06,0-.09a1.48,1.48,0,0,0-.2-.69Zm-6.52-.05C93,81.27,92,80.55,92,79.14s1.06-2.23,3.4-2.23h2.74a.15.15,0,0,1,.17.17v1.51c0,1.69-1.34,2.69-3.46,2.69Z"/><path class="cls-1" d="M106.4,83.15a1.18,1.18,0,0,0,1.23-1.32v-.37h0a4.16,4.16,0,0,0,3.89,1.83,4.74,4.74,0,0,0,4.72-3.44,14.58,14.58,0,0,0,0-7.45A4.74,4.74,0,0,0,111.53,69a4.15,4.15,0,0,0-3.89,1.83h0v-6.1a1.2,1.2,0,1,0-2.4,0V81.83a1.18,1.18,0,0,0,1,1.31Zm4.54-2.06a3,3,0,0,1-3-2.13,8.58,8.58,0,0,1-.32-2.81,8.51,8.51,0,0,1,.32-2.78,3.19,3.19,0,0,1,6,0,8.51,8.51,0,0,1,.32,2.78,8.59,8.59,0,0,1-.32,2.81A3,3,0,0,1,110.94,81.09Z"/><path class="cls-1" d="M131.63,81.32l-.49-.88a2.66,2.66,0,0,1-.26-1.4V74.11c0-3.37-1.71-5.12-5.37-5.12a7.67,7.67,0,0,0-4.18,1.06,1.06,1.06,0,0,0-.57,1,1,1,0,0,0,.84,1.06h.23a1.68,1.68,0,0,0,.69-.2,6.52,6.52,0,0,1,2.81-.68c2.4,0,3.29,1.06,3.29,3v.66a.15.15,0,0,1-.12.17h-3.16c-3.4,0-5.32,1.4-5.32,4.25,0,2.61,1.78,4.12,4.83,4.12a5.21,5.21,0,0,0,4.25-1.63h0l.54.86a1.26,1.26,0,0,0,1.06.6,1.15,1.15,0,0,0,1.23-1.06s0-.06,0-.09a1.48,1.48,0,0,0-.2-.69Zm-6.52-.05c-1.83,0-2.86-.71-2.86-2.13s1.06-2.23,3.4-2.23h2.74a.15.15,0,0,1,.17.17v1.51c0,1.69-1.34,2.69-3.46,2.69Z"/><path class="cls-1" d="M135.49,81.83a1.2,1.2,0,1,0,2.4,0h0V74.57a3.07,3.07,0,0,1,2.78-3.34h.41c2.06,0,3.06,1.29,3.06,3.49v7.13a1.2,1.2,0,1,0,2.4,0h0V74.14c0-3.12-1.78-5.15-4.74-5.15A4.33,4.33,0,0,0,138,70.85h0v-.4a1.2,1.2,0,0,0-2.4,0h0V81.83Z"/><path class="cls-1" d="M151.07,81.83a1.2,1.2,0,1,0,2.4,0h0v-3l2.4-2.69,3.86,6.32a1.28,1.28,0,0,0,1.06.69,1.06,1.06,0,0,0,1.15-1s0-.06,0-.09a1.3,1.3,0,0,0-.2-.71l-4.3-7,3.19-3.46a1.13,1.13,0,0,0,.34-.8,1,1,0,0,0-1-1h0a1.16,1.16,0,0,0-.91.43l-5.61,6.32V64.71a1.2,1.2,0,1,0-2.4,0h0V81.83Z"/></svg>