<svg id="Layer_1" data-name="Layer 1" xmlns="http://www.w3.org/2000/svg" viewBox="0 0 200 100"><defs><style>.cls-1{fill:#010101;}</style></defs><title>pa</title><path class="cls-1" d="M143.75,26.84A23,23,0,0,0,129.17,32,23.13,23.13,0,0,0,100,32a23.13,23.13,0,0,0-29.16,0,23.14,23.14,0,1,0,0,36A23.13,23.13,0,0,0,100,68a23.13,23.13,0,0,0,29.16,0,23.14,23.14,0,1,0,14.57-41.15ZM129.16,60.42a17.89,17.89,0,0,1,0-20.81A17.89,17.89,0,0,1,129.16,60.42Zm-29.16,0a17.89,17.89,0,0,1,0-20.89A17.89,17.89,0,0,1,100,60.42Zm-29.16,0a17.89,17.89,0,0,1,0-20.81A17.89,17.89,0,0,1,70.84,60.42ZM38.35,50A17.9,17.9,0,0,1,67.16,35.76a23.11,23.11,0,0,0,0,28.42A17.9,17.9,0,0,1,38.35,50ZM74.48,64.19a23.11,23.11,0,0,0,0-28.42,17.89,17.89,0,0,1,21.8,0,23.11,23.11,0,0,0,0,28.42A17.89,17.89,0,0,1,74.48,64.19Zm29.16,0a23.11,23.11,0,0,0,0-28.42,17.89,17.89,0,0,1,21.8,0,23.11,23.11,0,0,0,0,28.42A17.89,17.89,0,0,1,103.63,64.19Zm40.07,3.7a17.83,17.83,0,0,1-10.91-3.7,23.11,23.11,0,0,0,0-28.42A17.92,17.92,0,1,1,143.7,67.89Z"/></svg>