<?xml version="1.0" encoding="utf-8"?>
<!-- Generator: Adobe Illustrator 26.0.3, SVG Export Plug-In . SVG Version: 6.00 Build 0)  -->
<svg version="1.1" id="Layer_1" xmlns="http://www.w3.org/2000/svg" xmlns:xlink="http://www.w3.org/1999/xlink" x="0px" y="0px"
	 viewBox="0 0 200 100" style="enable-background:new 0 0 200 100;" xml:space="preserve">
<style type="text/css">
	
		.st0{clip-path:url(#SVGID_00000124878588479165843450000007627593740699526045_);fill:url(#SVGID_00000096761322656730011370000000148307500525120386_);}
</style>
<g>
	<defs>
		<path id="SVGID_1_" d="M48.7,32.7c-0.6,0.6-0.7,0.7-1,0.7c-0.2,0-0.5-0.2-0.7-0.7c-0.7-2.5-1.6-3.1-4.5-3.1
			c-3.1,0-4.5,1.2-4.5,4.1V66c0,2.6,1.6,3.9,5.3,3.9c3.5,0,5.2-1.2,5.2-3.9V50.1c-0.2-6.8,2.7-10.2,9-10.2c2.5,0,3.5-1.9,3.5-7.1
			c0-2.2-1.1-3.4-3.2-3.4C54.2,29.5,50.8,30.7,48.7,32.7 M133,49.1c0-7.1,3.9-12,9.8-12c5.9,0,9.2,4.1,9.2,11.7
			c0,1.1-0.3,1.5-1.3,1.5h-16.4C133.5,50.2,133,49.8,133,49.1 M122.4,56c0,16.7,8.2,26.1,22.9,26.1c9,0,15.7-3.8,15.7-8.7
			c0-1.9-1-3.1-2.4-3.1c-0.6,0-1.1,0.2-2.5,0.7c-3.9,1.6-6,2.1-9.1,2.1c-8.8,0-14.1-5-14.1-13.2c0-0.8,0.4-1.2,1.4-1.2h20.6
			c5.5,0,7.2-1.9,7.2-8.1c0-12.5-7.5-20.9-18.7-20.9C130.2,29.5,122.4,39.4,122.4,56 M111.3,35.3l-5.5,15.9c-0.2,0.7-0.6,1-1.1,1
			c-0.6,0-0.9-0.3-1.2-1L98,35.3c-1.6-4.8-2.8-5.9-6.2-5.9c-3.1,0-4.8,1.2-4.8,3.5c0,0.6,0.1,1,0.4,1.8l10.9,29.5
			c1.6,4.5,3,5.7,6.2,5.7c3.3,0,4.6-1.2,6.2-5.7l10.9-29.5c0.3-1,0.4-1.2,0.4-1.8c0-2.3-1.6-3.5-4.8-3.5
			C114.1,29.4,112.9,30.6,111.3,35.3 M64.8,22.1v30.7c0,11.7,4.7,17.8,13.9,17.8c6.2,0,9.8-2.2,9.8-6.2c0-2.1-0.8-3-2.6-3
			c-0.3,0-0.6,0-0.8,0.1c-2.5,0.2-3.4,0.3-4.3,0.3c-3.7,0-5.5-2.7-5.5-8.3V41.1c0-1.1,0.5-1.6,1.6-1.6h2.8c2.8,0,4.1-1.6,4.1-4.9
			c0-3.4-1.3-4.9-4.1-4.9h-2.8c-1.2,0-1.6-0.4-1.6-1.6v-5.9c0-2.8-1.6-4.1-5.3-4.1C66.5,18,64.8,19.3,64.8,22.1"/>
	</defs>
	<clipPath id="SVGID_00000098906090964943482260000010607584269322771360_">
		<use xlink:href="#SVGID_1_"  style="overflow:visible;"/>
	</clipPath>
	
		<linearGradient id="SVGID_00000175282104296729299350000017645416719163865740_" gradientUnits="userSpaceOnUse" x1="-318.5213" y1="343.2925" x2="-316.9662" y2="343.2925" gradientTransform="matrix(48.6564 -48.6564 -48.6564 -48.6564 32261.7227 1295.0342)">
		<stop  offset="0" style="stop-color:#F49900"/>
		<stop  offset="1" style="stop-color:#E74E0F"/>
	</linearGradient>
	
		<polygon style="clip-path:url(#SVGID_00000098906090964943482260000010607584269322771360_);fill:url(#SVGID_00000175282104296729299350000017645416719163865740_);" points="
		6,50 100,-44 194,50 100,144 	"/>
</g>
</svg>
