<?xml version="1.0" encoding="utf-8"?>
<!-- Generator: Adobe Illustrator 26.0.3, SVG Export Plug-In . SVG Version: 6.00 Build 0)  -->
<svg version="1.1" id="Layer_1" xmlns="http://www.w3.org/2000/svg" xmlns:xlink="http://www.w3.org/1999/xlink" x="0px" y="0px"
	 viewBox="0 0 200 100" style="enable-background:new 0 0 200 100;" xml:space="preserve">
<style type="text/css">
	.st0{fill:#1D1D1B;}
</style>
<g>
	<path class="st0" d="M53.6,29.2c-3.4,0.1-9.7,1.7-12.6,13.5c-1.3,5.1-1.7,10.4-0.7,16.8c1,5.8,2.7,10.9,3.9,13.7c0.4,1,1,2,1.5,2.6
		c1.4,1.8,3.7,1.7,4.7,1.2c1.1-0.5,2.3-1.8,1.9-4.7c-0.2-1.4-0.8-3.4-1.2-4.6c-1.1-3.5-2.5-7.7-2.6-10.7c-0.2-4,1.4-4.5,2.5-4.8
		c1.8-0.4,3.3,1.6,4.7,4c1.7,2.9,4.6,8,6.9,12c2.1,3.5,6,7.3,12.3,7.1c6.4-0.3,11.1-2.7,13.6-10.4c1.8-5.8,3.1-10.1,5.1-14.5
		c2.3-5.1,5.4-7.8,7.9-7c2.4,0.8,3,3.1,3,6.5c0,3-0.3,6.4-0.6,8.9c-0.1,0.9-0.3,2.7-0.2,3.7c0.1,2,1,3.9,3.2,4.2
		c2.4,0.3,4.2-1.5,5-3.8c0.3-0.9,0.6-2.3,0.7-3.2c0.7-4.9,0.9-8.2,0.6-13.3c-0.4-5.9-1.5-11.3-3.5-15.9c-1.9-4.4-5-7.3-9-7.5
		c-4.4-0.3-9.4,2.6-12.1,8.3c-2.4,5.2-4.4,10.5-5.6,13.3c-1.2,2.8-3,4.5-5.7,4.8c-3.3,0.3-6.2-2.1-8.2-5.5c-1.8-3-5.4-8.7-7.4-10.6
		C60,31.3,57.9,29.1,53.6,29.2"/>
	<polygon class="st0" points="160.2,44.1 147.4,44.1 147.4,31.3 137,31.3 137,44.1 124.2,44.1 124.2,54.5 137,54.5 137,67.3 
		147.4,67.3 147.4,54.5 160.2,54.5 	"/>
</g>
</svg>
