<?xml version="1.0" encoding="utf-8"?>
<!-- Generator: Adobe Illustrator 26.5.0, SVG Export Plug-In . SVG Version: 6.00 Build 0)  -->
<svg version="1.1" id="Layer_1" xmlns="http://www.w3.org/2000/svg" xmlns:xlink="http://www.w3.org/1999/xlink" x="0px" y="0px"
	 viewBox="0 0 200 100" style="enable-background:new 0 0 200 100;" xml:space="preserve">
<style type="text/css">
	.st0{fill:#1971C2;}
</style>
<g>
	<g>
		<g>
			<path class="st0" d="M46.5,52.9c0.7-0.3,1-0.9,0.8-1.6c-0.6-1.6-3.8-3.4-5.3-3c-1.4,0.4-5.4,1.9-8.9,3.3
				c-2.8,1.1-5.4,2.1-6.2,2.3l-0.1,0l0,0c-0.4,0.2-0.8,0.4-1.2,0.7c-0.8,0.7-1.3,1.7-1.4,2.8c0,0.1,0,0.2,0,0.3c0,1,0.4,1.9,1,2.7
				c0.7,0.8,1.7,1.3,2.8,1.4c0.7,0,1.3-0.1,1.9-0.4l0,0l0.1-0.1c1.5-0.7,3.7-1.9,6.1-3.2C39.7,56.3,43.9,54.1,46.5,52.9"/>
			<path class="st0" d="M56.6,53.8c-0.3-0.6-0.9-0.7-1.5-0.4c-4.5,2-8.9,4.6-13.2,7.1c-3.3,1.9-6.4,3.8-9.2,5.1l-0.1,0.1l0,0
				c-1.1,0.6-2,1.7-2.2,3.1c-0.2,1.1,0.1,2.3,0.7,3.2c0.7,0.9,1.7,1.6,2.8,1.8c1.1,0.2,2.2-0.1,3.1-0.7l0,0l0.1-0.1
				c1.8-1.2,6.6-4.4,10.9-7.3l7.2-4.8C56.5,60,57.4,55.4,56.6,53.8"/>
			<path class="st0" d="M45.8,36.5c2,0,3.6-1.5,3.6-3.5c0-1.9-1.6-3.5-3.6-3.5c-2,0-3.6,1.5-3.6,3.5C42.3,35,43.9,36.5,45.8,36.5"/>
			<path class="st0" d="M75.1,51.9c-0.3-7.4-3.9-14.3-10.6-20.3c0,0-3.5-2.8-5.1-4.5c-0.3-0.3-0.4-0.7-0.4-1.1c0-0.9,0.6-1.9,1-2.6
				l0.3-0.6c0.1-0.1,0.1-0.2,0.1-0.3c0-0.1,0-0.2-0.1-0.3c-0.1-0.2-0.3-0.2-0.4-0.2h0l0,0c-1.6,0.4-9.6,2.4-10.1,2.6
				c-0.5,0.2-1,0.8-1,1.5c0,0.5,0.2,1.2,1.2,1.7c0.8,0.4,18.6,10.1,19.4,23c0.4,6.6-3.6,12.9-11.9,18.8l0,0l0,0h0
				c-0.7,0.7-1.1,1.6-1.1,2.8c0,1.5,0.8,3,2,4c2.1,1.8,5.7,1.4,7.5-0.8c0,0,0.1-0.1,0.1-0.2c1.2-1.4,9.3-10.9,9.3-22.7
				C75.2,52.7,75.1,52.3,75.1,51.9"/>
		</g>
	</g>
	<path class="st0" d="M95.9,51.3c-7.9,0-13.5,5.5-13.5,13.3c0,8.1,5.8,13.2,14.8,13.2c2,0,6.8,0,11.4-3.4v-5.1
		c-3.8,2.7-6.3,3.7-9.5,3.7c-5,0-8.2-2.7-8.4-7.3h18.4C109.5,56.6,103.3,51.3,95.9,51.3 M90.9,61.6c0.3-3.5,2.4-5.6,5.6-5.6
		c3.1,0,5.2,2.1,5.5,5.6H90.9z"/>
	<path class="st0" d="M117.6,38.3c-2.5,0-4.6,2.1-4.6,4.6c0,2.5,2.1,4.6,4.6,4.6c2.5,0,4.6-2.1,4.6-4.6
		C122.1,40.3,120.1,38.3,117.6,38.3"/>
	<path class="st0" d="M136.4,43.2h-1l-10.9,12.2V57h3.7v11.2c0,7.3,4.7,9.8,10.1,9.8c2.5,0,4.7-0.4,7.6-1.6v-5.9
		c-2.2,1.1-3.8,1.5-5.5,1.5c-2.5,0-4-1.6-4-4.2V57h9.5v-5.6h-9.5V43.2z"/>
	<path class="st0" d="M163.5,51.6c-2.4,0-3.9,0.4-6.2,1.8V43.1c0-2.2-1.8-4-4-4c-2.2,0-4,1.8-4,4v30.8c0,2.2,1.8,4,4,4
		c1.7,0,3.1-1,3.7-2.5v0.1c2.2,1.6,4.6,2.4,7.1,2.4c6.9,0,11.8-5.4,11.8-13.2C175.8,56.9,170.8,51.6,163.5,51.6 M161.6,72.5
		c-1.5,0-2.9-0.6-4.4-1.9V58.5c1.7-1.1,2.9-1.6,4.3-1.6c3.3,0,6.2,2.2,6.2,7.6C167.8,69.6,165.4,72.5,161.6,72.5"/>
	<path class="st0" d="M117.4,51.6c-2.2,0-3.9,1.8-3.9,3.9v18.4c0,2.2,1.8,3.9,3.9,3.9c2.2,0,3.9-1.8,3.9-3.9V55.5
		C121.3,53.3,119.6,51.6,117.4,51.6"/>
	<path class="st0" d="M46.5,52.9c0.7-0.3,1-0.9,0.8-1.6c-0.6-1.6-3.8-3.4-5.3-3c-1.4,0.4-5.4,1.9-8.9,3.3c-2.8,1.1-5.4,2.1-6.2,2.3
		l-0.1,0l0,0c-0.4,0.2-0.8,0.4-1.2,0.7c-0.8,0.7-1.3,1.7-1.4,2.8c0,0.1,0,0.2,0,0.3c0,1,0.4,1.9,1,2.7c0.7,0.8,1.7,1.3,2.8,1.4
		c0.7,0,1.3-0.1,1.9-0.3l0,0l0.1-0.1c1.5-0.7,3.7-1.9,6.1-3.2C39.7,56.3,43.9,54.1,46.5,52.9"/>
	<path class="st0" d="M56.6,53.8c-0.3-0.6-0.9-0.7-1.5-0.4c-4.5,2-8.9,4.6-13.1,7.1c-3.3,1.9-6.3,3.7-9.1,5.1c0,0,0,0,0,0
		c0,0-0.1,0-0.1,0.1l-0.1,0.1l0,0c-1.1,0.6-2,1.7-2.2,3.1c-0.2,1.1,0.1,2.3,0.7,3.2c0.7,0.9,1.7,1.6,2.8,1.8
		c1.1,0.2,2.2-0.1,3.1-0.7l0,0l0.1-0.1c1.8-1.1,6.6-4.4,10.9-7.3l7.2-4.8C56.5,59.9,57.4,55.4,56.6,53.8"/>
	<path class="st0" d="M45.8,36.5c2,0,3.6-1.6,3.6-3.5c0-1.9-1.6-3.5-3.6-3.5c-2,0-3.6,1.6-3.6,3.5C42.3,34.9,43.9,36.5,45.8,36.5"/>
	<path class="st0" d="M64.5,31.7c0,0-3.5-2.8-5.1-4.5c-0.3-0.3-0.4-0.7-0.4-1.1c0-0.9,0.6-1.9,1-2.6l0.3-0.6
		c0.1-0.1,0.1-0.2,0.1-0.3c0-0.1,0-0.2-0.1-0.3c-0.1-0.2-0.3-0.2-0.4-0.2h0l0,0c-1.6,0.4-9.7,2.4-10.1,2.6c-0.5,0.2-1,0.8-1,1.5
		c0,0.5,0.2,1.2,1.2,1.7c0.8,0.4,18.6,10.1,19.4,23c0.4,6.6-3.6,12.9-11.9,18.8l0,0l0,0l0,0c-0.7,0.7-1.1,1.6-1.1,2.8
		c0,1.5,0.8,3,2,4c2.2,1.8,5.7,1.4,7.5-0.8c0,0,0.1-0.1,0.1-0.2c1.2-1.4,9.3-10.9,9.3-22.7c0-0.4,0-0.7,0-1.1
		C74.8,44.5,71.2,37.7,64.5,31.7"/>
</g>
</svg>
